# xmcd
#
# Track frame offsets: 
#        150
#        15551
#        30552
#        46446
#        61648
#        75083
#        92618
#        107174
#        121961
#        137186
#        153920
#        167100
#        183236
#
# Disc length: 2696 seconds
#
# Revision: 1
# Processed by: cddbd v1.5.2PL0 Copyright (c) Steve Scherf et al.
# Submitted via: ExactAudioCopyFreeDBPlugin 1.0
#
DISCID=930a860d
DTITLE=Lyfe Jennings - I Still Believe
DYEAR=2010
DGENRE=R&B
TTITLE0=Statistics
TTITLE1=Love
TTITLE2=It Coulda Been Worse
TTITLE3=Spotlight
TTITLE4=Busy
TTITLE5=Whatever She Wants
TTITLE6=Mama (feat. Anthony Hamilton)
TTITLE7=Hero
TTITLE8=I Still Believe
TTITLE9=Learn From This
TTITLE10=Done Crying
TTITLE11=If I Knew Then, What I Know Now
TTITLE12=If Tomorrow Never Comes
EXTD=
EXTT0=
EXTT1=
EXTT2=
EXTT3=
EXTT4=
EXTT5=
EXTT6=
EXTT7=
EXTT8=
EXTT9=
EXTT10=
EXTT11=
EXTT12=
PLAYORDER=
